<?xml version="1.0" encoding="utf-8"?>
<!-- Generator: Adobe Illustrator 19.0.0, SVG Export Plug-In . SVG Version: 6.00 Build 0)  -->
<svg version="1.1" baseProfile="basic" id="Capa_1" xmlns="http://www.w3.org/2000/svg" xmlns:xlink="http://www.w3.org/1999/xlink"
	 x="0px" y="0px" viewBox="0 0 700.7 140.7" xml:space="preserve">
<g>
	<g>
		<path fill="#060A0F" d="M157.4,90.4V46.9h19.2c7,0,12.9,6,12.9,12.9c0,3-1.1,5.7-2.8,7.8c3,2.4,4.9,6,4.9,10
			c0,6.9-5.9,12.8-12.8,12.8H157.4z M174.3,63.9c2.1,0,3.8-1.7,3.8-3.8c0-2.1-1.7-3.8-3.8-3.8h-5.5v7.5H174.3z M176.5,81
			c2.1,0,3.8-1.7,3.8-3.8s-1.8-3.8-3.8-3.8h-7.7V81H176.5z"/>
		<path fill="#060A0F" d="M198.5,46.9h11.4v32h15.7v11.5h-27.1V46.9z"/>
		<path fill="#060A0F" d="M230.9,90.4l20.3-43.5h5.2l20.5,43.5h-11.4l-2.7-5.7h-17.8l-2.6,5.7H230.9z M249.4,75.1h8.9l-4.4-9.6
			L249.4,75.1z"/>
		<path fill="#060A0F" d="M308.1,61.3c-1.8-1.8-4.4-2.8-7.3-2.8c-5.9,0-10.2,4.3-10.2,10.2c0,5.9,4.3,10.2,10.2,10.2
			c3,0,5.5-1,7.3-2.9l8.1,8c-3.9,3.9-9.4,6.4-15.4,6.4c-12,0-21.8-9.8-21.8-21.8s9.8-21.8,21.8-21.8c6,0,11.4,2.4,15.3,6.3
			L308.1,61.3z"/>
		<path fill="#060A0F" d="M367,46.9l-19.9,19.9l23.6,23.6h-16.1L339.1,75l-2.7,2.8v12.7h-11.4V46.9h11.4v14.7L351,46.9H367z"/>
		<path fill="#060A0F" d="M374.7,46.9H393c8.8,0,16,7.2,16,16c0,8.8-7.1,16-15.8,16h-7.1v11.6h-11.4V46.9z M386.1,69h7.1
			c3.5,0,6.3-2.7,6.3-6.2c0-3.5-2.8-6.3-6.3-6.3h-7.1V69z"/>
		<path fill="#060A0F" d="M410,90.4l20.3-43.5h5.2L456,90.4h-11.4l-2.7-5.7H424l-2.6,5.7H410z M428.5,75.1h8.9l-4.4-9.6L428.5,75.1z
			"/>
		<path fill="#060A0F" d="M487,90.4l-6.7-11.6h-7.1v11.6h-11.4V46.9h18.3c8.8,0,16,7.2,16,16c0,4.6-2,8.8-5.2,11.7l9.2,15.8H487z
			 M473.2,69h7.1c3.5,0,6.3-2.7,6.3-6.2c0-3.5-2.8-6.3-6.3-6.3h-7.1V69z"/>
		<path fill="#060A0F" d="M504.1,90.4l20.3-43.5h5.2L550,90.4h-11.4l-2.7-5.7h-17.8l-2.6,5.7H504.1z M522.6,75.1h8.9l-4.4-9.6
			L522.6,75.1z"/>
		<path fill="#060A0F" d="M555.8,46.9H572c12,0,21.8,9.8,21.8,21.8S584,90.4,572,90.4h-16.1V46.9z M567.2,79.2h4.8
			c5.7,0,10.3-4.6,10.3-10.3c0-5.6-4.6-10.3-10.3-10.3h-4.8V79.2z"/>
		<path fill="#060A0F" d="M621.6,46.9c12,0,21.8,9.8,21.8,21.8c0,12-9.8,21.7-21.8,21.7c-12,0-21.7-9.7-21.7-21.7
			C599.9,56.7,609.6,46.9,621.6,46.9z M621.6,58.3c-5.7,0-10.3,4.6-10.3,10.4c0,5.7,4.6,10.4,10.3,10.4c5.7,0,10.4-4.7,10.4-10.4
			C632,62.9,627.4,58.3,621.6,58.3z"/>
		<path fill="#060A0F" d="M691.9,46.9l-14.5,20.8l16,22.7h-13.9l-9-12.8l-9.1,12.8h-13.9l16-22.7l-14.5-20.8h13.9l7.6,10.9l7.5-10.9
			H691.9z"/>
	</g>
	<g>
		<polygon fill="#060A0F" points="110.7,91.6 135.7,66.6 105.3,36.2 58.9,36.2 58.9,47.1 100.8,47.1 120.3,66.6 110.7,76.2 		"/>
		<polygon fill="#060A0F" points="67.9,6.1 37.5,36.5 37.5,81.4 48.4,81.4 48.4,41 67.9,21.5 77.5,31.1 92.8,31.1 		"/>
		<polygon fill="#060A0F" points="94.5,59.3 94.5,99.7 75,119.2 65.4,109.6 50,109.6 75,134.5 105.3,104.2 105.3,59.3 		"/>
		<polygon fill="#060A0F" points="42.2,93.3 22.7,73.8 32.3,64.3 32.3,48.9 7.3,73.8 37.7,104.2 82.6,104.2 82.6,93.3 		"/>
	</g>
</g>
</svg>
